<svg xmlns="http://www.w3.org/2000/svg" width="64" height="64" viewBox="0 0 64 64">
  <rect width="64" height="64" rx="16" fill="#a85a36"/>
  <g fill="#f7f1e5">
    <ellipse cx="22" cy="22.5" rx="5" ry="6.5" transform="rotate(-14 22 22.5)"/>
    <ellipse cx="42" cy="22.5" rx="5" ry="6.5" transform="rotate(14 42 22.5)"/>
    <ellipse cx="12.5" cy="33" rx="4.3" ry="5.6" transform="rotate(-28 12.5 33)"/>
    <ellipse cx="51.5" cy="33" rx="4.3" ry="5.6" transform="rotate(28 51.5 33)"/>
    <path d="M32 31c6.5 0 12.5 5.4 13.6 11.9.8 4.7-2.5 8.1-6.6 7.3-2.8-.5-4.6-1.7-7-1.7s-4.2 1.2-7 1.7c-4.1.8-7.4-2.6-6.6-7.3C19.5 36.4 25.5 31 32 31z"/>
  </g>
</svg>
